<?xml version="1.0" encoding="UTF-8"?>
<svg id="Layer_2" xmlns="http://www.w3.org/2000/svg" version="1.1" viewBox="0 0 483.1 139.35">
  <!-- Generator: Adobe Illustrator 29.5.0, SVG Export Plug-In . SVG Version: 2.1.0 Build 137)  -->
  <defs>
    <style>
      .st0 {
        fill: #3f1d0e;
        font-family: Spaced-Regular, Spaced;
        font-size: 47.65px;
      }

      .st1 {
        fill: none;
      }

      .st2 {
        fill: #216da5;
      }

      .st3 {
        fill: #4c5a67;
      }

      .st4 {
        fill: #4d5968;
      }

      .st5 {
        fill: #206ca5;
      }

      .st6 {
        fill: #353a41;
      }

      .st7 {
        fill: #53bdec;
      }
    </style>
  </defs>
  <g>
    <path class="st6" d="M205.68,95.47"/>
    <path class="st3" d="M184.69,104.3h0Z"/>
    <path class="st1" d="M192.14,55.07c-1.6,2.61-1.72,6.06-.32,8.78"/>
    <path class="st4" d="M209.87,63.57c-.53-.11-1.03-.3-1.55-.43-.63-.02-1.26-.05-1.88.02-.1.01-.19,0-.27-.03-.09,0-.17-.01-.26-.02-.29,0-.57.01-.86.02-.03,0-.05,0-.08,0-1.04.08-2.07.15-3.11.19-2.64.11-5.41-.13-7.97.63-.79.23-.45,1.47.34,1.23,2.45-.73,5.11-.48,7.63-.59,1.32-.06,2.64-.14,3.96-.26.67-.06,1.33-.14,1.99,0,.58.13,1.13.36,1.71.48.8.16,1.15-1.07.34-1.23Z"/>
    <path class="st4" d="M201.48,72.44c-2.78-2.14-5.24-4.66-8.13-6.67-.68-.47-1.32.64-.65,1.11,2.88,2.01,5.34,4.54,8.13,6.67.65.5,1.29-.61.65-1.11Z"/>
    <path class="st4" d="M207.47,70.6c-1.82.19-3.81.53-4.78,2.27-.4.72.71,1.37,1.11.65.73-1.31,2.32-1.5,3.67-1.64.81-.08.82-1.37,0-1.28Z"/>
    <path class="st4" d="M201.23,75.34c-.62.98-.95,2.14-1.34,3.23-.36,1.02-.66,2.01-.85,3.07-.31.57-.18,1.34-.17,1.96,0,.82,1.28.83,1.28,0,0-.27,0-.54,0-.82,0-.08.02-.2.02-.3.03-.06.05-.13.07-.2.17-1.09.44-2.1.82-3.13.38-1.06.69-2.19,1.29-3.15.44-.7-.67-1.34-1.11-.65Z"/>
    <path class="st4" d="M207.53,76.96c-1.06-.53-2.55-.74-3.23-1.81-.44-.69-1.55-.05-1.11.65.86,1.34,2.35,1.61,3.69,2.27.74.36,1.39-.74.65-1.11Z"/>
    <path class="st4" d="M199.86,73.94c-1.22.22-2.46.09-3.69,0-1.24-.09-2.43-.09-3.66.08-1.19.16-2.37.27-3.56.34-1.02.06-2.03.17-2.99.5,1.27-3.07,4.03-5.24,6.24-7.63.56-.61-.35-1.51-.9-.9-2.56,2.78-5.69,5.25-6.86,8.99-.19.6.48.93.92.72.13.19.35.28.64.17,1.1-.44,2.25-.53,3.43-.6,1.21-.07,2.39-.24,3.59-.38,2.41-.28,4.81.36,7.2-.06.81-.14.47-1.38-.34-1.23Z"/>
    <path class="st4" d="M192.44,52.81c-.71,1.93-1.26,3.92-1.62,5.95-.34,1.9-.61,3.86-.33,5.78-.06-.05-.14-.08-.24-.1-2.17-.45-4.19-1.31-6.02-2.57-.68-.47-1.32.64-.65,1.11,1.91,1.32,4.06,2.23,6.33,2.7.46.09.77-.27.8-.63.38.29,1.14-.05,1.04-.7-.3-1.87.05-3.87.4-5.72.36-1.86.87-3.69,1.53-5.47.29-.77-.95-1.11-1.23-.34Z"/>
    <g>
      <path class="st7" d="M173.04,77.96s-2.01-8.25-.62-13.79h-14.63l-3.54,8.66,10.33-.07v9.91h-6.38s-12.21-.65-12.55-14.08c1.18-13.92,13.7-14.06,13.7-14.06h12.59l3.77-8.68h-17.89s-17.43.65-20.69,19.96c0,0,6.52,5.64,4.02,16.79,0,0,5.62,8.04,15.27,8.73h16.7"/>
      <path class="st7" d="M139.09,45.8h-17.76s-14.22-.21-14.84,13.24c-.05,8.94,5.27,10.95,8.53,11.85,7.62,2.4,14.82,1.85,14.56,7.28-.32,5.12-6.65,4.37-9.22,4.39s-11.83.03-11.83.03l-3.75,8.81h20.62s12.48-1.06,13.21-13.43c-.52-12.58-10.87-12.63-15.14-13.72-4.27-1.09-8.32-1.3-8.27-5.61s4.68-4.16,4.68-4.16l15.29-.05,3.89-8.62Z"/>
    </g>
    <path class="st4" d="M209.12,63.13c-.08,0-.15,0-.23,0l-2.05.05v17.69s-7.75,5.2-17.22.74c-9.46-4.46-10.6-21.7,2.58-26.6,8.67-2.68,13.62,2.33,13.62,2.33l6.1-5.65s-6.14-6.21-16.98-5.88c-10.7.99-18.3,8.94-20.41,17.68-2.11,10,1.52,24.4,20.02,28.29.01,0,.02,0,.04,0-.02,0-.04,0-.04,0,0,0,1.01.16,2.57.22-.04,0-.08,0-.12-.01.04,0,.08,0,.12.01,2.64.1,6.87-.09,10.45-1.88,5.68-2.84,7.73-4.62,7.73-4.62v-22.53l-6.18.14Z"/>
    <path class="st4" d="M196.85,91.99s.06,0,.09,0c-.03,0-.06,0-.09,0Z"/>
    <path class="st4" d="M194.6,91.79s.02,0,.03,0c-.01,0-.02,0-.03,0Z"/>
    <path class="st4" d="M194.73,91.8s.01,0,.02,0c0,0-.01,0-.02,0Z"/>
    <path class="st4" d="M194.81,91.81s.04,0,.05,0c-.02,0-.04,0-.05,0Z"/>
    <path class="st4" d="M194.93,91.82s.01,0,.02,0c0,0-.01,0-.02,0Z"/>
    <path class="st4" d="M195.47,91.87s0,0,0,0c0,0,0,0,0,0Z"/>
    <path class="st4" d="M195.59,91.88c.07,0,.13.01.2.02-.07,0-.13-.01-.2-.02Z"/>
    <path class="st4" d="M195.83,91.9s.09,0,.13.01c-.04,0-.09,0-.13-.01Z"/>
    <path class="st4" d="M196.04,91.92c.1,0,.2.02.3.03-.1,0-.2-.02-.3-.03Z"/>
    <path class="st4" d="M196.47,91.95c.07,0,.14.01.21.02-.07,0-.14-.01-.21-.02Z"/>
    <g>
      <circle class="st5" cx="192.3" cy="65.52" r="2.33"/>
      <circle class="st2" cx="185.04" cy="76.81" r="2.33"/>
      <circle class="st5" cx="201.95" cy="73.77" r="2.33"/>
    </g>
  </g>
  <text class="st0" transform="translate(220.26 90.34)"><tspan x="0" y="0">Webs</tspan></text>
</svg>